<mxfile host="app.diagrams.net" modified="2024-03-03T17:52:57.043Z" agent="Mozilla/5.0 (Windows NT 10.0; Win64; x64) AppleWebKit/537.36 (KHTML, like Gecko) Chrome/122.0.0.0 Safari/537.36" etag="aVsS6BNxv4cTMRHhO-km" version="24.0.0" type="device">
  <diagram name="Page-1" id="QXka5FE-FyXiF2F8H_tM">
    <mxGraphModel dx="4097" dy="2206" grid="1" gridSize="10" guides="1" tooltips="1" connect="1" arrows="1" fold="1" page="1" pageScale="1" pageWidth="850" pageHeight="1100" math="0" shadow="0">
      <root>
        <mxCell id="0" />
        <mxCell id="1" parent="0" />
        <mxCell id="CanKQbwPebpVtMm_e2v4-1" value="Напишите программу, которая бесконечно запрашивает целые числа с консоли. Программа завершается при вводе символа ‘q’ или при вводе числа, сумма цифр которого четная." style="text;html=1;align=left;verticalAlign=middle;whiteSpace=wrap;rounded=0;" vertex="1" parent="1">
          <mxGeometry x="40" y="10" width="640" height="30" as="geometry" />
        </mxCell>
        <mxCell id="CanKQbwPebpVtMm_e2v4-4" style="edgeStyle=orthogonalEdgeStyle;rounded=0;orthogonalLoop=1;jettySize=auto;html=1;exitX=0.5;exitY=1;exitDx=0;exitDy=0;entryX=0.5;entryY=0;entryDx=0;entryDy=0;" edge="1" parent="1" source="CanKQbwPebpVtMm_e2v4-2" target="CanKQbwPebpVtMm_e2v4-3">
          <mxGeometry relative="1" as="geometry" />
        </mxCell>
        <mxCell id="CanKQbwPebpVtMm_e2v4-2" value="Start" style="ellipse;whiteSpace=wrap;html=1;" vertex="1" parent="1">
          <mxGeometry x="300" y="70" width="120" height="80" as="geometry" />
        </mxCell>
        <mxCell id="CanKQbwPebpVtMm_e2v4-7" style="edgeStyle=orthogonalEdgeStyle;rounded=0;orthogonalLoop=1;jettySize=auto;html=1;exitX=0.5;exitY=1;exitDx=0;exitDy=0;entryX=0.5;entryY=0;entryDx=0;entryDy=0;" edge="1" parent="1" source="CanKQbwPebpVtMm_e2v4-3" target="CanKQbwPebpVtMm_e2v4-6">
          <mxGeometry relative="1" as="geometry" />
        </mxCell>
        <mxCell id="CanKQbwPebpVtMm_e2v4-3" value="Введите число: &lt;br&gt;num" style="shape=parallelogram;perimeter=parallelogramPerimeter;whiteSpace=wrap;html=1;fixedSize=1;" vertex="1" parent="1">
          <mxGeometry x="280" y="170" width="160" height="80" as="geometry" />
        </mxCell>
        <mxCell id="CanKQbwPebpVtMm_e2v4-10" style="edgeStyle=orthogonalEdgeStyle;rounded=0;orthogonalLoop=1;jettySize=auto;html=1;exitX=0.5;exitY=1;exitDx=0;exitDy=0;entryX=0.5;entryY=0;entryDx=0;entryDy=0;" edge="1" parent="1" source="CanKQbwPebpVtMm_e2v4-5" target="CanKQbwPebpVtMm_e2v4-9">
          <mxGeometry relative="1" as="geometry" />
        </mxCell>
        <mxCell id="CanKQbwPebpVtMm_e2v4-11" value="ДА" style="edgeLabel;html=1;align=center;verticalAlign=middle;resizable=0;points=[];" vertex="1" connectable="0" parent="CanKQbwPebpVtMm_e2v4-10">
          <mxGeometry x="-0.0897" y="1" relative="1" as="geometry">
            <mxPoint as="offset" />
          </mxGeometry>
        </mxCell>
        <mxCell id="CanKQbwPebpVtMm_e2v4-13" style="edgeStyle=orthogonalEdgeStyle;rounded=0;orthogonalLoop=1;jettySize=auto;html=1;exitX=1;exitY=0.5;exitDx=0;exitDy=0;" edge="1" parent="1" source="CanKQbwPebpVtMm_e2v4-5" target="CanKQbwPebpVtMm_e2v4-12">
          <mxGeometry relative="1" as="geometry" />
        </mxCell>
        <mxCell id="CanKQbwPebpVtMm_e2v4-14" value="НЕТ" style="edgeLabel;html=1;align=center;verticalAlign=middle;resizable=0;points=[];" vertex="1" connectable="0" parent="CanKQbwPebpVtMm_e2v4-13">
          <mxGeometry x="0.0145" y="1" relative="1" as="geometry">
            <mxPoint as="offset" />
          </mxGeometry>
        </mxCell>
        <mxCell id="CanKQbwPebpVtMm_e2v4-5" value="convertedVal - число ?" style="rhombus;whiteSpace=wrap;html=1;" vertex="1" parent="1">
          <mxGeometry x="261.25" y="380" width="197.5" height="120" as="geometry" />
        </mxCell>
        <mxCell id="CanKQbwPebpVtMm_e2v4-8" style="edgeStyle=orthogonalEdgeStyle;rounded=0;orthogonalLoop=1;jettySize=auto;html=1;exitX=0.5;exitY=1;exitDx=0;exitDy=0;entryX=0.5;entryY=0;entryDx=0;entryDy=0;" edge="1" parent="1" source="CanKQbwPebpVtMm_e2v4-6" target="CanKQbwPebpVtMm_e2v4-5">
          <mxGeometry relative="1" as="geometry" />
        </mxCell>
        <mxCell id="CanKQbwPebpVtMm_e2v4-6" value="int convertedVal = Convert.ToInt32(num)" style="rounded=0;whiteSpace=wrap;html=1;" vertex="1" parent="1">
          <mxGeometry x="217.5" y="280" width="285" height="70" as="geometry" />
        </mxCell>
        <mxCell id="CanKQbwPebpVtMm_e2v4-18" style="edgeStyle=orthogonalEdgeStyle;rounded=0;orthogonalLoop=1;jettySize=auto;html=1;exitX=1;exitY=0.5;exitDx=0;exitDy=0;entryX=0;entryY=0.5;entryDx=0;entryDy=0;" edge="1" parent="1" source="CanKQbwPebpVtMm_e2v4-9" target="CanKQbwPebpVtMm_e2v4-16">
          <mxGeometry relative="1" as="geometry" />
        </mxCell>
        <mxCell id="CanKQbwPebpVtMm_e2v4-20" value="ДА" style="edgeLabel;html=1;align=center;verticalAlign=middle;resizable=0;points=[];" vertex="1" connectable="0" parent="CanKQbwPebpVtMm_e2v4-18">
          <mxGeometry x="-0.1781" y="-2" relative="1" as="geometry">
            <mxPoint as="offset" />
          </mxGeometry>
        </mxCell>
        <mxCell id="CanKQbwPebpVtMm_e2v4-26" style="edgeStyle=orthogonalEdgeStyle;rounded=0;orthogonalLoop=1;jettySize=auto;html=1;exitX=0;exitY=0.5;exitDx=0;exitDy=0;entryX=0;entryY=0.5;entryDx=0;entryDy=0;" edge="1" parent="1" source="CanKQbwPebpVtMm_e2v4-9" target="CanKQbwPebpVtMm_e2v4-3">
          <mxGeometry relative="1" as="geometry">
            <Array as="points">
              <mxPoint x="90" y="620" />
              <mxPoint x="90" y="210" />
            </Array>
          </mxGeometry>
        </mxCell>
        <mxCell id="CanKQbwPebpVtMm_e2v4-27" value="НЕТ" style="edgeLabel;html=1;align=center;verticalAlign=middle;resizable=0;points=[];" vertex="1" connectable="0" parent="CanKQbwPebpVtMm_e2v4-26">
          <mxGeometry x="-0.0624" y="-1" relative="1" as="geometry">
            <mxPoint as="offset" />
          </mxGeometry>
        </mxCell>
        <mxCell id="CanKQbwPebpVtMm_e2v4-9" value="сумма цифр - четная ?" style="rhombus;whiteSpace=wrap;html=1;" vertex="1" parent="1">
          <mxGeometry x="265.62" y="560" width="188.75" height="120" as="geometry" />
        </mxCell>
        <mxCell id="CanKQbwPebpVtMm_e2v4-17" style="edgeStyle=orthogonalEdgeStyle;rounded=0;orthogonalLoop=1;jettySize=auto;html=1;exitX=0.5;exitY=1;exitDx=0;exitDy=0;entryX=0.5;entryY=0;entryDx=0;entryDy=0;" edge="1" parent="1" source="CanKQbwPebpVtMm_e2v4-12" target="CanKQbwPebpVtMm_e2v4-16">
          <mxGeometry relative="1" as="geometry" />
        </mxCell>
        <mxCell id="CanKQbwPebpVtMm_e2v4-19" value="ДА" style="edgeLabel;html=1;align=center;verticalAlign=middle;resizable=0;points=[];" vertex="1" connectable="0" parent="CanKQbwPebpVtMm_e2v4-17">
          <mxGeometry x="0.0793" y="-2" relative="1" as="geometry">
            <mxPoint as="offset" />
          </mxGeometry>
        </mxCell>
        <mxCell id="CanKQbwPebpVtMm_e2v4-23" style="edgeStyle=orthogonalEdgeStyle;rounded=0;orthogonalLoop=1;jettySize=auto;html=1;exitX=1;exitY=0.5;exitDx=0;exitDy=0;entryX=1;entryY=0.5;entryDx=0;entryDy=0;" edge="1" parent="1" source="CanKQbwPebpVtMm_e2v4-12" target="CanKQbwPebpVtMm_e2v4-3">
          <mxGeometry relative="1" as="geometry">
            <Array as="points">
              <mxPoint x="800" y="440" />
              <mxPoint x="800" y="210" />
            </Array>
          </mxGeometry>
        </mxCell>
        <mxCell id="CanKQbwPebpVtMm_e2v4-25" value="НЕТ" style="edgeLabel;html=1;align=center;verticalAlign=middle;resizable=0;points=[];" vertex="1" connectable="0" parent="CanKQbwPebpVtMm_e2v4-23">
          <mxGeometry x="-0.4982" y="-2" relative="1" as="geometry">
            <mxPoint as="offset" />
          </mxGeometry>
        </mxCell>
        <mxCell id="CanKQbwPebpVtMm_e2v4-12" value="convertedVal == &#39;q&#39; ?" style="rhombus;whiteSpace=wrap;html=1;" vertex="1" parent="1">
          <mxGeometry x="540" y="380" width="197.5" height="120" as="geometry" />
        </mxCell>
        <mxCell id="CanKQbwPebpVtMm_e2v4-16" value="End" style="ellipse;whiteSpace=wrap;html=1;" vertex="1" parent="1">
          <mxGeometry x="578.75" y="580" width="120" height="80" as="geometry" />
        </mxCell>
        <mxCell id="CanKQbwPebpVtMm_e2v4-32" style="edgeStyle=orthogonalEdgeStyle;rounded=0;orthogonalLoop=1;jettySize=auto;html=1;exitX=0.5;exitY=1;exitDx=0;exitDy=0;entryX=0.5;entryY=0;entryDx=0;entryDy=0;" edge="1" parent="1" source="CanKQbwPebpVtMm_e2v4-28" target="CanKQbwPebpVtMm_e2v4-31">
          <mxGeometry relative="1" as="geometry" />
        </mxCell>
        <mxCell id="CanKQbwPebpVtMm_e2v4-28" value="Start" style="ellipse;whiteSpace=wrap;html=1;" vertex="1" parent="1">
          <mxGeometry x="1860" y="70" width="120" height="80" as="geometry" />
        </mxCell>
        <mxCell id="CanKQbwPebpVtMm_e2v4-37" style="edgeStyle=orthogonalEdgeStyle;rounded=0;orthogonalLoop=1;jettySize=auto;html=1;exitX=0.5;exitY=1;exitDx=0;exitDy=0;entryX=0.5;entryY=0;entryDx=0;entryDy=0;" edge="1" parent="1" source="CanKQbwPebpVtMm_e2v4-29" target="CanKQbwPebpVtMm_e2v4-36">
          <mxGeometry relative="1" as="geometry" />
        </mxCell>
        <mxCell id="CanKQbwPebpVtMm_e2v4-29" value="num" style="shape=parallelogram;perimeter=parallelogramPerimeter;whiteSpace=wrap;html=1;fixedSize=1;" vertex="1" parent="1">
          <mxGeometry x="1840" y="310" width="160" height="80" as="geometry" />
        </mxCell>
        <mxCell id="CanKQbwPebpVtMm_e2v4-33" style="edgeStyle=orthogonalEdgeStyle;rounded=0;orthogonalLoop=1;jettySize=auto;html=1;exitX=0.5;exitY=1;exitDx=0;exitDy=0;entryX=0.5;entryY=0;entryDx=0;entryDy=0;" edge="1" parent="1" source="CanKQbwPebpVtMm_e2v4-31" target="CanKQbwPebpVtMm_e2v4-29">
          <mxGeometry relative="1" as="geometry" />
        </mxCell>
        <mxCell id="CanKQbwPebpVtMm_e2v4-31" value="int i = 1&lt;br&gt;int j = 0&lt;br&gt;int sum = 0&lt;br&gt;int intVal&lt;br&gt;int[] arr = new int[]" style="rounded=0;whiteSpace=wrap;html=1;" vertex="1" parent="1">
          <mxGeometry x="1783.75" y="200" width="272.5" height="80" as="geometry" />
        </mxCell>
        <mxCell id="CanKQbwPebpVtMm_e2v4-39" style="edgeStyle=orthogonalEdgeStyle;rounded=0;orthogonalLoop=1;jettySize=auto;html=1;exitX=0;exitY=0.5;exitDx=0;exitDy=0;entryX=0;entryY=0.5;entryDx=0;entryDy=0;" edge="1" parent="1" source="CanKQbwPebpVtMm_e2v4-34" target="CanKQbwPebpVtMm_e2v4-36">
          <mxGeometry relative="1" as="geometry">
            <Array as="points">
              <mxPoint x="1740" y="630" />
              <mxPoint x="1740" y="480" />
            </Array>
          </mxGeometry>
        </mxCell>
        <mxCell id="CanKQbwPebpVtMm_e2v4-40" value="ДА" style="edgeLabel;html=1;align=center;verticalAlign=middle;resizable=0;points=[];" vertex="1" connectable="0" parent="CanKQbwPebpVtMm_e2v4-39">
          <mxGeometry x="-0.0871" y="-2" relative="1" as="geometry">
            <mxPoint as="offset" />
          </mxGeometry>
        </mxCell>
        <mxCell id="CanKQbwPebpVtMm_e2v4-42" style="edgeStyle=orthogonalEdgeStyle;rounded=0;orthogonalLoop=1;jettySize=auto;html=1;exitX=0.5;exitY=1;exitDx=0;exitDy=0;entryX=0.5;entryY=0;entryDx=0;entryDy=0;" edge="1" parent="1" source="CanKQbwPebpVtMm_e2v4-34" target="CanKQbwPebpVtMm_e2v4-41">
          <mxGeometry relative="1" as="geometry" />
        </mxCell>
        <mxCell id="CanKQbwPebpVtMm_e2v4-74" value="НЕТ" style="edgeLabel;html=1;align=center;verticalAlign=middle;resizable=0;points=[];" vertex="1" connectable="0" parent="CanKQbwPebpVtMm_e2v4-42">
          <mxGeometry x="-0.2667" y="-1" relative="1" as="geometry">
            <mxPoint as="offset" />
          </mxGeometry>
        </mxCell>
        <mxCell id="CanKQbwPebpVtMm_e2v4-34" value="num &amp;gt; i ?" style="rhombus;whiteSpace=wrap;html=1;" vertex="1" parent="1">
          <mxGeometry x="1825" y="560" width="190" height="140" as="geometry" />
        </mxCell>
        <mxCell id="CanKQbwPebpVtMm_e2v4-38" style="edgeStyle=orthogonalEdgeStyle;rounded=0;orthogonalLoop=1;jettySize=auto;html=1;exitX=0.5;exitY=1;exitDx=0;exitDy=0;entryX=0.5;entryY=0;entryDx=0;entryDy=0;" edge="1" parent="1" source="CanKQbwPebpVtMm_e2v4-36" target="CanKQbwPebpVtMm_e2v4-34">
          <mxGeometry relative="1" as="geometry" />
        </mxCell>
        <mxCell id="CanKQbwPebpVtMm_e2v4-36" value="i = i * 10" style="rounded=0;whiteSpace=wrap;html=1;" vertex="1" parent="1">
          <mxGeometry x="1847.5" y="440" width="145" height="80" as="geometry" />
        </mxCell>
        <mxCell id="CanKQbwPebpVtMm_e2v4-48" style="edgeStyle=orthogonalEdgeStyle;rounded=0;orthogonalLoop=1;jettySize=auto;html=1;exitX=0.5;exitY=1;exitDx=0;exitDy=0;entryX=0.5;entryY=0;entryDx=0;entryDy=0;" edge="1" parent="1" source="CanKQbwPebpVtMm_e2v4-41" target="CanKQbwPebpVtMm_e2v4-47">
          <mxGeometry relative="1" as="geometry" />
        </mxCell>
        <mxCell id="CanKQbwPebpVtMm_e2v4-41" value="i = i / 10" style="rounded=0;whiteSpace=wrap;html=1;" vertex="1" parent="1">
          <mxGeometry x="1847.5" y="760" width="145" height="80" as="geometry" />
        </mxCell>
        <mxCell id="CanKQbwPebpVtMm_e2v4-51" style="edgeStyle=orthogonalEdgeStyle;rounded=0;orthogonalLoop=1;jettySize=auto;html=1;exitX=0.5;exitY=1;exitDx=0;exitDy=0;entryX=0.5;entryY=0;entryDx=0;entryDy=0;" edge="1" parent="1" source="CanKQbwPebpVtMm_e2v4-43" target="CanKQbwPebpVtMm_e2v4-46">
          <mxGeometry relative="1" as="geometry" />
        </mxCell>
        <mxCell id="CanKQbwPebpVtMm_e2v4-43" value="intVal = num / i" style="rounded=0;whiteSpace=wrap;html=1;" vertex="1" parent="1">
          <mxGeometry x="1843.75" y="1100" width="152.5" height="80" as="geometry" />
        </mxCell>
        <mxCell id="CanKQbwPebpVtMm_e2v4-53" style="edgeStyle=orthogonalEdgeStyle;rounded=0;orthogonalLoop=1;jettySize=auto;html=1;exitX=0;exitY=0.5;exitDx=0;exitDy=0;entryX=0;entryY=0.5;entryDx=0;entryDy=0;" edge="1" parent="1" source="CanKQbwPebpVtMm_e2v4-44" target="CanKQbwPebpVtMm_e2v4-47">
          <mxGeometry relative="1" as="geometry">
            <Array as="points">
              <mxPoint x="1750" y="1360" />
              <mxPoint x="1750" y="960" />
            </Array>
          </mxGeometry>
        </mxCell>
        <mxCell id="CanKQbwPebpVtMm_e2v4-44" value="num = num - (intVal * i )" style="rounded=0;whiteSpace=wrap;html=1;" vertex="1" parent="1">
          <mxGeometry x="1843.75" y="1320" width="152.5" height="80" as="geometry" />
        </mxCell>
        <mxCell id="CanKQbwPebpVtMm_e2v4-52" style="edgeStyle=orthogonalEdgeStyle;rounded=0;orthogonalLoop=1;jettySize=auto;html=1;exitX=0.5;exitY=1;exitDx=0;exitDy=0;entryX=0.5;entryY=0;entryDx=0;entryDy=0;" edge="1" parent="1" source="CanKQbwPebpVtMm_e2v4-46" target="CanKQbwPebpVtMm_e2v4-44">
          <mxGeometry relative="1" as="geometry" />
        </mxCell>
        <mxCell id="CanKQbwPebpVtMm_e2v4-46" value="arr = intVal" style="rounded=0;whiteSpace=wrap;html=1;" vertex="1" parent="1">
          <mxGeometry x="1843.75" y="1210" width="152.5" height="80" as="geometry" />
        </mxCell>
        <mxCell id="CanKQbwPebpVtMm_e2v4-49" style="edgeStyle=orthogonalEdgeStyle;rounded=0;orthogonalLoop=1;jettySize=auto;html=1;exitX=0.5;exitY=1;exitDx=0;exitDy=0;entryX=0.5;entryY=0;entryDx=0;entryDy=0;" edge="1" parent="1" source="CanKQbwPebpVtMm_e2v4-47" target="CanKQbwPebpVtMm_e2v4-43">
          <mxGeometry relative="1" as="geometry" />
        </mxCell>
        <mxCell id="CanKQbwPebpVtMm_e2v4-50" value="ДА" style="edgeLabel;html=1;align=center;verticalAlign=middle;resizable=0;points=[];" vertex="1" connectable="0" parent="CanKQbwPebpVtMm_e2v4-49">
          <mxGeometry x="-0.0381" relative="1" as="geometry">
            <mxPoint as="offset" />
          </mxGeometry>
        </mxCell>
        <mxCell id="CanKQbwPebpVtMm_e2v4-55" style="edgeStyle=orthogonalEdgeStyle;rounded=0;orthogonalLoop=1;jettySize=auto;html=1;exitX=1;exitY=0.5;exitDx=0;exitDy=0;entryX=0;entryY=0.5;entryDx=0;entryDy=0;" edge="1" parent="1" source="CanKQbwPebpVtMm_e2v4-47" target="CanKQbwPebpVtMm_e2v4-54">
          <mxGeometry relative="1" as="geometry" />
        </mxCell>
        <mxCell id="CanKQbwPebpVtMm_e2v4-56" value="НЕТ" style="edgeLabel;html=1;align=center;verticalAlign=middle;resizable=0;points=[];" vertex="1" connectable="0" parent="CanKQbwPebpVtMm_e2v4-55">
          <mxGeometry x="-0.0794" y="-2" relative="1" as="geometry">
            <mxPoint as="offset" />
          </mxGeometry>
        </mxCell>
        <mxCell id="CanKQbwPebpVtMm_e2v4-47" value="num &amp;gt; 10 ?" style="rhombus;whiteSpace=wrap;html=1;" vertex="1" parent="1">
          <mxGeometry x="1825" y="890" width="190" height="140" as="geometry" />
        </mxCell>
        <mxCell id="CanKQbwPebpVtMm_e2v4-58" style="edgeStyle=orthogonalEdgeStyle;rounded=0;orthogonalLoop=1;jettySize=auto;html=1;exitX=0.5;exitY=1;exitDx=0;exitDy=0;entryX=0.5;entryY=0;entryDx=0;entryDy=0;" edge="1" parent="1" source="CanKQbwPebpVtMm_e2v4-54" target="CanKQbwPebpVtMm_e2v4-57">
          <mxGeometry relative="1" as="geometry" />
        </mxCell>
        <mxCell id="CanKQbwPebpVtMm_e2v4-54" value="добавить num в arr" style="rounded=0;whiteSpace=wrap;html=1;" vertex="1" parent="1">
          <mxGeometry x="2300" y="920" width="200" height="80" as="geometry" />
        </mxCell>
        <mxCell id="CanKQbwPebpVtMm_e2v4-60" style="edgeStyle=orthogonalEdgeStyle;rounded=0;orthogonalLoop=1;jettySize=auto;html=1;exitX=0.5;exitY=1;exitDx=0;exitDy=0;entryX=0.5;entryY=0;entryDx=0;entryDy=0;" edge="1" parent="1" source="CanKQbwPebpVtMm_e2v4-57" target="CanKQbwPebpVtMm_e2v4-59">
          <mxGeometry relative="1" as="geometry" />
        </mxCell>
        <mxCell id="CanKQbwPebpVtMm_e2v4-61" value="ДА" style="edgeLabel;html=1;align=center;verticalAlign=middle;resizable=0;points=[];" vertex="1" connectable="0" parent="CanKQbwPebpVtMm_e2v4-60">
          <mxGeometry x="-0.1833" y="4" relative="1" as="geometry">
            <mxPoint as="offset" />
          </mxGeometry>
        </mxCell>
        <mxCell id="CanKQbwPebpVtMm_e2v4-67" style="edgeStyle=orthogonalEdgeStyle;rounded=0;orthogonalLoop=1;jettySize=auto;html=1;exitX=1;exitY=0.5;exitDx=0;exitDy=0;" edge="1" parent="1" source="CanKQbwPebpVtMm_e2v4-57" target="CanKQbwPebpVtMm_e2v4-65">
          <mxGeometry relative="1" as="geometry" />
        </mxCell>
        <mxCell id="CanKQbwPebpVtMm_e2v4-68" value="НЕТ" style="edgeLabel;html=1;align=center;verticalAlign=middle;resizable=0;points=[];" vertex="1" connectable="0" parent="CanKQbwPebpVtMm_e2v4-67">
          <mxGeometry x="0.0494" y="-1" relative="1" as="geometry">
            <mxPoint as="offset" />
          </mxGeometry>
        </mxCell>
        <mxCell id="CanKQbwPebpVtMm_e2v4-57" value="j &amp;lt; arr.Length ?" style="rhombus;whiteSpace=wrap;html=1;" vertex="1" parent="1">
          <mxGeometry x="2305" y="1070" width="190" height="140" as="geometry" />
        </mxCell>
        <mxCell id="CanKQbwPebpVtMm_e2v4-63" style="edgeStyle=orthogonalEdgeStyle;rounded=0;orthogonalLoop=1;jettySize=auto;html=1;exitX=0.5;exitY=1;exitDx=0;exitDy=0;entryX=0.5;entryY=0;entryDx=0;entryDy=0;" edge="1" parent="1" source="CanKQbwPebpVtMm_e2v4-59" target="CanKQbwPebpVtMm_e2v4-62">
          <mxGeometry relative="1" as="geometry" />
        </mxCell>
        <mxCell id="CanKQbwPebpVtMm_e2v4-59" value="sum = sum + arr[j]" style="rounded=0;whiteSpace=wrap;html=1;" vertex="1" parent="1">
          <mxGeometry x="2311.88" y="1270" width="176.25" height="90" as="geometry" />
        </mxCell>
        <mxCell id="CanKQbwPebpVtMm_e2v4-64" style="edgeStyle=orthogonalEdgeStyle;rounded=0;orthogonalLoop=1;jettySize=auto;html=1;exitX=0;exitY=0.5;exitDx=0;exitDy=0;entryX=0;entryY=0.5;entryDx=0;entryDy=0;" edge="1" parent="1" source="CanKQbwPebpVtMm_e2v4-62" target="CanKQbwPebpVtMm_e2v4-57">
          <mxGeometry relative="1" as="geometry">
            <Array as="points">
              <mxPoint x="2240" y="1435" />
              <mxPoint x="2240" y="1140" />
            </Array>
          </mxGeometry>
        </mxCell>
        <mxCell id="CanKQbwPebpVtMm_e2v4-62" value="j = j + 1" style="rounded=0;whiteSpace=wrap;html=1;" vertex="1" parent="1">
          <mxGeometry x="2311.87" y="1390" width="176.25" height="90" as="geometry" />
        </mxCell>
        <mxCell id="CanKQbwPebpVtMm_e2v4-70" style="edgeStyle=orthogonalEdgeStyle;rounded=0;orthogonalLoop=1;jettySize=auto;html=1;exitX=1;exitY=0.5;exitDx=0;exitDy=0;entryX=0;entryY=0.5;entryDx=0;entryDy=0;" edge="1" parent="1" source="CanKQbwPebpVtMm_e2v4-65" target="CanKQbwPebpVtMm_e2v4-69">
          <mxGeometry relative="1" as="geometry" />
        </mxCell>
        <mxCell id="CanKQbwPebpVtMm_e2v4-71" value="ДА" style="edgeLabel;html=1;align=center;verticalAlign=middle;resizable=0;points=[];" vertex="1" connectable="0" parent="CanKQbwPebpVtMm_e2v4-70">
          <mxGeometry x="0.037" y="-1" relative="1" as="geometry">
            <mxPoint as="offset" />
          </mxGeometry>
        </mxCell>
        <mxCell id="CanKQbwPebpVtMm_e2v4-72" style="edgeStyle=orthogonalEdgeStyle;rounded=0;orthogonalLoop=1;jettySize=auto;html=1;exitX=0.5;exitY=0;exitDx=0;exitDy=0;entryX=1;entryY=0.5;entryDx=0;entryDy=0;" edge="1" parent="1" source="CanKQbwPebpVtMm_e2v4-65" target="CanKQbwPebpVtMm_e2v4-31">
          <mxGeometry relative="1" as="geometry" />
        </mxCell>
        <mxCell id="CanKQbwPebpVtMm_e2v4-73" value="НЕТ" style="edgeLabel;html=1;align=center;verticalAlign=middle;resizable=0;points=[];" vertex="1" connectable="0" parent="CanKQbwPebpVtMm_e2v4-72">
          <mxGeometry x="-0.7634" y="4" relative="1" as="geometry">
            <mxPoint as="offset" />
          </mxGeometry>
        </mxCell>
        <mxCell id="CanKQbwPebpVtMm_e2v4-65" value="sum % 2 == 0 ?" style="rhombus;whiteSpace=wrap;html=1;" vertex="1" parent="1">
          <mxGeometry x="2630" y="1070" width="190" height="140" as="geometry" />
        </mxCell>
        <mxCell id="CanKQbwPebpVtMm_e2v4-69" value="End" style="ellipse;whiteSpace=wrap;html=1;" vertex="1" parent="1">
          <mxGeometry x="2910" y="1100" width="120" height="80" as="geometry" />
        </mxCell>
      </root>
    </mxGraphModel>
  </diagram>
</mxfile>
